<svg xmlns="http://www.w3.org/2000/svg" viewBox="0 0 912 1026" width="912" height="1026" style="font-family: ui-monospace, monospace; font-size: 12px;"><defs><marker id="arrow" viewBox="0 0 10 10" refX="10" refY="5" markerWidth="8" markerHeight="8" orient="auto-start-reverse"><path d="M 0 0 L 10 5 L 0 10 z" fill="rgba(154,124,255,0.6)"></path></marker></defs><path d="M 336 81 C 296 81, 296 59, 256 59" fill="none" stroke="rgba(154,124,255,0.4)" stroke-width="1.5" marker-end="url(#arrow)"></path><path d="M 656 59 C 456 59, 456 59, 256 59" fill="none" stroke="rgba(154,124,255,0.4)" stroke-width="1.5" marker-end="url(#arrow)"></path><path d="M 256 323 C 256 323, 256 59, 256 59" fill="none" stroke="rgba(154,124,255,0.4)" stroke-width="1.5" marker-end="url(#arrow)"></path><path d="M 656 367 C 616 367, 616 301, 576 301" fill="none" stroke="rgba(154,124,255,0.4)" stroke-width="1.5" marker-end="url(#arrow)"></path><path d="M 576 587 C 616 587, 616 301, 656 301" fill="none" stroke="rgba(154,124,255,0.4)" stroke-width="1.5" marker-end="url(#arrow)"></path><path d="M 336 609 C 296 609, 296 565, 256 565" fill="none" stroke="rgba(154,124,255,0.4)" stroke-width="1.5" marker-end="url(#arrow)"></path><path d="M 656 587 C 456 587, 456 59, 256 59" fill="none" stroke="rgba(154,124,255,0.4)" stroke-width="1.5" marker-end="url(#arrow)"></path><path d="M 256 829 C 456 829, 456 565, 656 565" fill="none" stroke="rgba(154,124,255,0.4)" stroke-width="1.5" marker-end="url(#arrow)"></path><path d="M 256 895 C 296 895, 296 565, 336 565" fill="none" stroke="rgba(154,124,255,0.4)" stroke-width="1.5" marker-end="url(#arrow)"></path><rect x="16" y="16" width="240" height="136" rx="8" fill="rgba(22,22,22,1)" stroke="rgba(255,255,255,0.1)" stroke-width="1"></rect><rect x="16" y="16" width="240" height="32" rx="8" fill="rgba(154,124,255,0.12)"></rect><rect x="16" y="44" width="240" height="4" fill="rgba(154,124,255,0.12)"></rect><text x="28" y="37" fill="rgba(255,255,255,1)" font-weight="600" font-size="13">User</text><text x="28" y="63" fill="rgba(255,255,255,0.85)">id</text><rect x="48.4" y="53" width="22" height="14" rx="3" fill="rgba(79,188,252,0.7)" opacity="0.2"></rect><text x="59.4" y="62" fill="rgba(79,188,252,0.7)" font-size="9" font-weight="600" text-anchor="middle">PK</text><text x="244" y="63" fill="rgba(255,255,255,0.4)" text-anchor="end" font-size="11">Int</text><text x="28" y="85" fill="rgba(255,255,255,0.85)">email</text><text x="244" y="85" fill="rgba(255,255,255,0.4)" text-anchor="end" font-size="11">String</text><text x="28" y="107" fill="rgba(255,255,255,0.85)">password_hash</text><text x="244" y="107" fill="rgba(255,255,255,0.4)" text-anchor="end" font-size="11">String</text><text x="28" y="129" fill="rgba(255,255,255,0.85)">created_at</text><text x="244" y="129" fill="rgba(255,255,255,0.4)" text-anchor="end" font-size="11">DateTime</text><rect x="336" y="16" width="240" height="202" rx="8" fill="rgba(22,22,22,1)" stroke="rgba(255,255,255,0.1)" stroke-width="1"></rect><rect x="336" y="16" width="240" height="32" rx="8" fill="rgba(154,124,255,0.12)"></rect><rect x="336" y="44" width="240" height="4" fill="rgba(154,124,255,0.12)"></rect><text x="348" y="37" fill="rgba(255,255,255,1)" font-weight="600" font-size="13">ApiKey</text><text x="348" y="63" fill="rgba(255,255,255,0.85)">id</text><rect x="368.4" y="53" width="22" height="14" rx="3" fill="rgba(79,188,252,0.7)" opacity="0.2"></rect><text x="379.4" y="62" fill="rgba(79,188,252,0.7)" font-size="9" font-weight="600" text-anchor="middle">PK</text><text x="564" y="63" fill="rgba(255,255,255,0.4)" text-anchor="end" font-size="11">Int</text><text x="348" y="85" fill="rgba(154,124,255,0.9)">user_id</text><rect x="404.4" y="75" width="22" height="14" rx="3" fill="rgba(154,124,255,0.7)" opacity="0.2"></rect><text x="415.4" y="84" fill="rgba(154,124,255,0.7)" font-size="9" font-weight="600" text-anchor="middle">FK</text><text x="564" y="85" fill="rgba(255,255,255,0.4)" text-anchor="end" font-size="11">Int</text><text x="348" y="107" fill="rgba(255,255,255,0.85)">name</text><text x="564" y="107" fill="rgba(255,255,255,0.4)" text-anchor="end" font-size="11">String?</text><text x="348" y="129" fill="rgba(255,255,255,0.85)">key_hash</text><text x="564" y="129" fill="rgba(255,255,255,0.4)" text-anchor="end" font-size="11">String</text><text x="348" y="151" fill="rgba(255,255,255,0.85)">disabled</text><text x="564" y="151" fill="rgba(255,255,255,0.4)" text-anchor="end" font-size="11">Boolean</text><text x="348" y="173" fill="rgba(255,255,255,0.85)">created_at</text><text x="564" y="173" fill="rgba(255,255,255,0.4)" text-anchor="end" font-size="11">DateTime</text><text x="348" y="195" fill="rgba(255,255,255,0.85)">last_used_at</text><text x="564" y="195" fill="rgba(255,255,255,0.4)" text-anchor="end" font-size="11">DateTime?</text><rect x="656" y="16" width="240" height="114" rx="8" fill="rgba(22,22,22,1)" stroke="rgba(255,255,255,0.1)" stroke-width="1"></rect><rect x="656" y="16" width="240" height="32" rx="8" fill="rgba(154,124,255,0.12)"></rect><rect x="656" y="44" width="240" height="4" fill="rgba(154,124,255,0.12)"></rect><text x="668" y="37" fill="rgba(255,255,255,1)" font-weight="600" font-size="13">Credit</text><text x="668" y="63" fill="rgba(154,124,255,0.9)">user_id</text><rect x="724.4" y="53" width="22" height="14" rx="3" fill="rgba(79,188,252,0.7)" opacity="0.2"></rect><text x="735.4" y="62" fill="rgba(79,188,252,0.7)" font-size="9" font-weight="600" text-anchor="middle">PK</text><rect x="752.4" y="53" width="22" height="14" rx="3" fill="rgba(154,124,255,0.7)" opacity="0.2"></rect><text x="763.4" y="62" fill="rgba(154,124,255,0.7)" font-size="9" font-weight="600" text-anchor="middle">FK</text><text x="884" y="63" fill="rgba(255,255,255,0.4)" text-anchor="end" font-size="11">Int</text><text x="668" y="85" fill="rgba(255,255,255,0.85)">balance</text><text x="884" y="85" fill="rgba(255,255,255,0.4)" text-anchor="end" font-size="11">Decimal</text><text x="668" y="107" fill="rgba(255,255,255,0.85)">updated_at</text><text x="884" y="107" fill="rgba(255,255,255,0.4)" text-anchor="end" font-size="11">DateTime</text><rect x="16" y="258" width="240" height="224" rx="8" fill="rgba(22,22,22,1)" stroke="rgba(255,255,255,0.1)" stroke-width="1"></rect><rect x="16" y="258" width="240" height="32" rx="8" fill="rgba(154,124,255,0.12)"></rect><rect x="16" y="286" width="240" height="4" fill="rgba(154,124,255,0.12)"></rect><text x="28" y="279" fill="rgba(255,255,255,1)" font-weight="600" font-size="13">Transaction</text><text x="28" y="305" fill="rgba(255,255,255,0.85)">id</text><rect x="48.4" y="295" width="22" height="14" rx="3" fill="rgba(79,188,252,0.7)" opacity="0.2"></rect><text x="59.4" y="304" fill="rgba(79,188,252,0.7)" font-size="9" font-weight="600" text-anchor="middle">PK</text><text x="244" y="305" fill="rgba(255,255,255,0.4)" text-anchor="end" font-size="11">Int</text><text x="28" y="327" fill="rgba(154,124,255,0.9)">user_id</text><rect x="84.4" y="317" width="22" height="14" rx="3" fill="rgba(154,124,255,0.7)" opacity="0.2"></rect><text x="95.4" y="326" fill="rgba(154,124,255,0.7)" font-size="9" font-weight="600" text-anchor="middle">FK</text><text x="244" y="327" fill="rgba(255,255,255,0.4)" text-anchor="end" font-size="11">Int</text><text x="28" y="349" fill="rgba(255,255,255,0.85)">type</text><text x="244" y="349" fill="rgba(255,255,255,0.4)" text-anchor="end" font-size="11">TransactionType</text><text x="28" y="371" fill="rgba(255,255,255,0.85)">amount</text><text x="244" y="371" fill="rgba(255,255,255,0.4)" text-anchor="end" font-size="11">Decimal</text><text x="28" y="393" fill="rgba(255,255,255,0.85)">status</text><text x="244" y="393" fill="rgba(255,255,255,0.4)" text-anchor="end" font-size="11">TransactionStatus</text><text x="28" y="415" fill="rgba(255,255,255,0.85)">provider</text><text x="244" y="415" fill="rgba(255,255,255,0.4)" text-anchor="end" font-size="11">String</text><text x="28" y="437" fill="rgba(255,255,255,0.85)">provider_txn_id</text><text x="244" y="437" fill="rgba(255,255,255,0.4)" text-anchor="end" font-size="11">String?</text><text x="28" y="459" fill="rgba(255,255,255,0.85)">created_at</text><text x="244" y="459" fill="rgba(255,255,255,0.4)" text-anchor="end" font-size="11">DateTime</text><rect x="336" y="258" width="240" height="114" rx="8" fill="rgba(22,22,22,1)" stroke="rgba(255,255,255,0.1)" stroke-width="1"></rect><rect x="336" y="258" width="240" height="32" rx="8" fill="rgba(154,124,255,0.12)"></rect><rect x="336" y="286" width="240" height="4" fill="rgba(154,124,255,0.12)"></rect><text x="348" y="279" fill="rgba(255,255,255,1)" font-weight="600" font-size="13">Company</text><text x="348" y="305" fill="rgba(255,255,255,0.85)">id</text><rect x="368.4" y="295" width="22" height="14" rx="3" fill="rgba(79,188,252,0.7)" opacity="0.2"></rect><text x="379.4" y="304" fill="rgba(79,188,252,0.7)" font-size="9" font-weight="600" text-anchor="middle">PK</text><text x="564" y="305" fill="rgba(255,255,255,0.4)" text-anchor="end" font-size="11">Int</text><text x="348" y="327" fill="rgba(255,255,255,0.85)">name</text><text x="564" y="327" fill="rgba(255,255,255,0.4)" text-anchor="end" font-size="11">String</text><text x="348" y="349" fill="rgba(255,255,255,0.85)">website</text><text x="564" y="349" fill="rgba(255,255,255,0.4)" text-anchor="end" font-size="11">String?</text><rect x="656" y="258" width="240" height="136" rx="8" fill="rgba(22,22,22,1)" stroke="rgba(255,255,255,0.1)" stroke-width="1"></rect><rect x="656" y="258" width="240" height="32" rx="8" fill="rgba(154,124,255,0.12)"></rect><rect x="656" y="286" width="240" height="4" fill="rgba(154,124,255,0.12)"></rect><text x="668" y="279" fill="rgba(255,255,255,1)" font-weight="600" font-size="13">Model</text><text x="668" y="305" fill="rgba(255,255,255,0.85)">id</text><rect x="688.4" y="295" width="22" height="14" rx="3" fill="rgba(79,188,252,0.7)" opacity="0.2"></rect><text x="699.4" y="304" fill="rgba(79,188,252,0.7)" font-size="9" font-weight="600" text-anchor="middle">PK</text><text x="884" y="305" fill="rgba(255,255,255,0.4)" text-anchor="end" font-size="11">Int</text><text x="668" y="327" fill="rgba(255,255,255,0.85)">name</text><text x="884" y="327" fill="rgba(255,255,255,0.4)" text-anchor="end" font-size="11">String</text><text x="668" y="349" fill="rgba(255,255,255,0.85)">slug</text><text x="884" y="349" fill="rgba(255,255,255,0.4)" text-anchor="end" font-size="11">String</text><text x="668" y="371" fill="rgba(154,124,255,0.9)">company_id</text><rect x="746" y="361" width="22" height="14" rx="3" fill="rgba(154,124,255,0.7)" opacity="0.2"></rect><text x="757" y="370" fill="rgba(154,124,255,0.7)" font-size="9" font-weight="600" text-anchor="middle">FK</text><text x="884" y="371" fill="rgba(255,255,255,0.4)" text-anchor="end" font-size="11">Int</text><rect x="16" y="522" width="240" height="114" rx="8" fill="rgba(22,22,22,1)" stroke="rgba(255,255,255,0.1)" stroke-width="1"></rect><rect x="16" y="522" width="240" height="32" rx="8" fill="rgba(154,124,255,0.12)"></rect><rect x="16" y="550" width="240" height="4" fill="rgba(154,124,255,0.12)"></rect><text x="28" y="543" fill="rgba(255,255,255,1)" font-weight="600" font-size="13">Provider</text><text x="28" y="569" fill="rgba(255,255,255,0.85)">id</text><rect x="48.4" y="559" width="22" height="14" rx="3" fill="rgba(79,188,252,0.7)" opacity="0.2"></rect><text x="59.4" y="568" fill="rgba(79,188,252,0.7)" font-size="9" font-weight="600" text-anchor="middle">PK</text><text x="244" y="569" fill="rgba(255,255,255,0.4)" text-anchor="end" font-size="11">Int</text><text x="28" y="591" fill="rgba(255,255,255,0.85)">name</text><text x="244" y="591" fill="rgba(255,255,255,0.4)" text-anchor="end" font-size="11">String</text><text x="28" y="613" fill="rgba(255,255,255,0.85)">website</text><text x="244" y="613" fill="rgba(255,255,255,0.4)" text-anchor="end" font-size="11">String?</text><rect x="336" y="522" width="240" height="202" rx="8" fill="rgba(22,22,22,1)" stroke="rgba(255,255,255,0.1)" stroke-width="1"></rect><rect x="336" y="522" width="240" height="32" rx="8" fill="rgba(154,124,255,0.12)"></rect><rect x="336" y="550" width="240" height="4" fill="rgba(154,124,255,0.12)"></rect><text x="348" y="543" fill="rgba(255,255,255,1)" font-weight="600" font-size="13">ModelProviderMapping</text><text x="348" y="569" fill="rgba(255,255,255,0.85)">id</text><rect x="368.4" y="559" width="22" height="14" rx="3" fill="rgba(79,188,252,0.7)" opacity="0.2"></rect><text x="379.4" y="568" fill="rgba(79,188,252,0.7)" font-size="9" font-weight="600" text-anchor="middle">PK</text><text x="564" y="569" fill="rgba(255,255,255,0.4)" text-anchor="end" font-size="11">Int</text><text x="348" y="591" fill="rgba(154,124,255,0.9)">model_id</text><rect x="411.6" y="581" width="22" height="14" rx="3" fill="rgba(154,124,255,0.7)" opacity="0.2"></rect><text x="422.6" y="590" fill="rgba(154,124,255,0.7)" font-size="9" font-weight="600" text-anchor="middle">FK</text><text x="564" y="591" fill="rgba(255,255,255,0.4)" text-anchor="end" font-size="11">Int</text><text x="348" y="613" fill="rgba(154,124,255,0.9)">provider_id</text><rect x="433.2" y="603" width="22" height="14" rx="3" fill="rgba(154,124,255,0.7)" opacity="0.2"></rect><text x="444.2" y="612" fill="rgba(154,124,255,0.7)" font-size="9" font-weight="600" text-anchor="middle">FK</text><text x="564" y="613" fill="rgba(255,255,255,0.4)" text-anchor="end" font-size="11">Int</text><text x="348" y="635" fill="rgba(255,255,255,0.85)">input_token_cost</text><text x="564" y="635" fill="rgba(255,255,255,0.4)" text-anchor="end" font-size="11">Decimal?</text><text x="348" y="657" fill="rgba(255,255,255,0.85)">output_token_cost</text><text x="564" y="657" fill="rgba(255,255,255,0.4)" text-anchor="end" font-size="11">Decimal?</text><text x="348" y="679" fill="rgba(255,255,255,0.85)">priority</text><text x="564" y="679" fill="rgba(255,255,255,0.4)" text-anchor="end" font-size="11">Int</text><text x="348" y="701" fill="rgba(255,255,255,0.85)">is_active</text><text x="564" y="701" fill="rgba(255,255,255,0.4)" text-anchor="end" font-size="11">Boolean</text><rect x="656" y="522" width="240" height="114" rx="8" fill="rgba(22,22,22,1)" stroke="rgba(255,255,255,0.1)" stroke-width="1"></rect><rect x="656" y="522" width="240" height="32" rx="8" fill="rgba(154,124,255,0.12)"></rect><rect x="656" y="550" width="240" height="4" fill="rgba(154,124,255,0.12)"></rect><text x="668" y="543" fill="rgba(255,255,255,1)" font-weight="600" font-size="13">Conversation</text><text x="668" y="569" fill="rgba(255,255,255,0.85)">id</text><rect x="688.4" y="559" width="22" height="14" rx="3" fill="rgba(79,188,252,0.7)" opacity="0.2"></rect><text x="699.4" y="568" fill="rgba(79,188,252,0.7)" font-size="9" font-weight="600" text-anchor="middle">PK</text><text x="884" y="569" fill="rgba(255,255,255,0.4)" text-anchor="end" font-size="11">Int</text><text x="668" y="591" fill="rgba(154,124,255,0.9)">user_id</text><rect x="724.4" y="581" width="22" height="14" rx="3" fill="rgba(154,124,255,0.7)" opacity="0.2"></rect><text x="735.4" y="590" fill="rgba(154,124,255,0.7)" font-size="9" font-weight="600" text-anchor="middle">FK</text><text x="884" y="591" fill="rgba(255,255,255,0.4)" text-anchor="end" font-size="11">Int</text><text x="668" y="613" fill="rgba(255,255,255,0.85)">created_at</text><text x="884" y="613" fill="rgba(255,255,255,0.4)" text-anchor="end" font-size="11">DateTime</text><rect x="16" y="764" width="240" height="246" rx="8" fill="rgba(22,22,22,1)" stroke="rgba(255,255,255,0.1)" stroke-width="1"></rect><rect x="16" y="764" width="240" height="32" rx="8" fill="rgba(154,124,255,0.12)"></rect><rect x="16" y="792" width="240" height="4" fill="rgba(154,124,255,0.12)"></rect><text x="28" y="785" fill="rgba(255,255,255,1)" font-weight="600" font-size="13">Message</text><text x="28" y="811" fill="rgba(255,255,255,0.85)">id</text><rect x="48.4" y="801" width="22" height="14" rx="3" fill="rgba(79,188,252,0.7)" opacity="0.2"></rect><text x="59.4" y="810" fill="rgba(79,188,252,0.7)" font-size="9" font-weight="600" text-anchor="middle">PK</text><text x="244" y="811" fill="rgba(255,255,255,0.4)" text-anchor="end" font-size="11">Int</text><text x="28" y="833" fill="rgba(154,124,255,0.9)">conversation_id</text><rect x="142" y="823" width="22" height="14" rx="3" fill="rgba(154,124,255,0.7)" opacity="0.2"></rect><text x="153" y="832" fill="rgba(154,124,255,0.7)" font-size="9" font-weight="600" text-anchor="middle">FK</text><text x="244" y="833" fill="rgba(255,255,255,0.4)" text-anchor="end" font-size="11">Int</text><text x="28" y="855" fill="rgba(255,255,255,0.85)">role</text><text x="244" y="855" fill="rgba(255,255,255,0.4)" text-anchor="end" font-size="11">MessageRole</text><text x="28" y="877" fill="rgba(255,255,255,0.85)">content</text><text x="244" y="877" fill="rgba(255,255,255,0.4)" text-anchor="end" font-size="11">String</text><text x="28" y="899" fill="rgba(154,124,255,0.9)">model_provider_mapping_id</text><rect x="214" y="889" width="22" height="14" rx="3" fill="rgba(154,124,255,0.7)" opacity="0.2"></rect><text x="225" y="898" fill="rgba(154,124,255,0.7)" font-size="9" font-weight="600" text-anchor="middle">FK</text><text x="244" y="899" fill="rgba(255,255,255,0.4)" text-anchor="end" font-size="11">Int?</text><text x="28" y="921" fill="rgba(255,255,255,0.85)">input_tokens</text><text x="244" y="921" fill="rgba(255,255,255,0.4)" text-anchor="end" font-size="11">Int?</text><text x="28" y="943" fill="rgba(255,255,255,0.85)">output_tokens</text><text x="244" y="943" fill="rgba(255,255,255,0.4)" text-anchor="end" font-size="11">Int?</text><text x="28" y="965" fill="rgba(255,255,255,0.85)">cost</text><text x="244" y="965" fill="rgba(255,255,255,0.4)" text-anchor="end" font-size="11">Decimal?</text><text x="28" y="987" fill="rgba(255,255,255,0.85)">created_at</text><text x="244" y="987" fill="rgba(255,255,255,0.4)" text-anchor="end" font-size="11">DateTime</text></svg>